<svg width="22" height="24" viewBox="0 0 22 24" fill="none" xmlns="http://www.w3.org/2000/svg">
<g clip-path="url(#clip0_20_3)">
<path d="M3.65918 7C3.65918 6.46957 3.85194 5.96086 4.19505 5.58579C4.53817 5.21071 5.00353 5 5.48876 5H16.4663C16.9515 5 17.4169 5.21071 17.76 5.58579C18.1031 5.96086 18.2959 6.46957 18.2959 7V19C18.2959 19.5304 18.1031 20.0391 17.76 20.4142C17.4169 20.7893 16.9515 21 16.4663 21H5.48876C5.00353 21 4.53817 20.7893 4.19505 20.4142C3.85194 20.0391 3.65918 19.5304 3.65918 19V7Z" stroke="black" stroke-width="2" stroke-linecap="round" stroke-linejoin="round"/>
<path d="M14.6367 3V7" stroke="black" stroke-width="2" stroke-linecap="round" stroke-linejoin="round"/>
<path d="M7.31833 3V7" stroke="black" stroke-width="2" stroke-linecap="round" stroke-linejoin="round"/>
<path d="M3.65918 11H18.2959" stroke="black" stroke-width="2" stroke-linecap="round" stroke-linejoin="round"/>
<path d="M6.40353 14H6.41653" stroke="black" stroke-width="2" stroke-linecap="round" stroke-linejoin="round"/>
<path d="M9.15707 14H9.16207" stroke="black" stroke-width="2" stroke-linecap="round" stroke-linejoin="round"/>
<path d="M11.9015 14H11.9065" stroke="black" stroke-width="2" stroke-linecap="round" stroke-linejoin="round"/>
<path d="M14.6504 14H14.6554" stroke="black" stroke-width="2" stroke-linecap="round" stroke-linejoin="round"/>
<path d="M11.906 17H11.911" stroke="black" stroke-width="2" stroke-linecap="round" stroke-linejoin="round"/>
<path d="M6.41269 17H6.41769" stroke="black" stroke-width="2" stroke-linecap="round" stroke-linejoin="round"/>
<path d="M9.15707 17H9.16207" stroke="black" stroke-width="2" stroke-linecap="round" stroke-linejoin="round"/>
</g>
<defs>
<clipPath id="clip0_20_3">
<rect width="21.955" height="24" fill="white"/>
</clipPath>
</defs>
</svg>
