<svg width="22" height="24" viewBox="0 0 22 24" fill="none" xmlns="http://www.w3.org/2000/svg">
<g clip-path="url(#clip0_26_89)">
<path d="M2.74438 12C2.74438 13.1819 2.95734 14.3522 3.37109 15.4442C3.78485 16.5361 4.3913 17.5282 5.15581 18.364C5.92033 19.1997 6.82794 19.8626 7.82683 20.3149C8.82572 20.7672 9.89632 21 10.9775 21C12.0587 21 13.1293 20.7672 14.1282 20.3149C15.1271 19.8626 16.0347 19.1997 16.7992 18.364C17.5637 17.5282 18.1702 16.5361 18.5839 15.4442C18.9977 14.3522 19.2106 13.1819 19.2106 12C19.2106 9.61305 18.3432 7.32387 16.7992 5.63604C15.2552 3.94821 13.1611 3 10.9775 3C8.79395 3 6.69982 3.94821 5.15581 5.63604C3.6118 7.32387 2.74438 9.61305 2.74438 12Z" stroke="black" stroke-width="2" stroke-linecap="round" stroke-linejoin="round"/>
<path d="M10.9775 7V12L13.7219 15" stroke="black" stroke-width="2" stroke-linecap="round" stroke-linejoin="round"/>
</g>
<defs>
<clipPath id="clip0_26_89">
<rect width="21.955" height="24" fill="white"/>
</clipPath>
</defs>
</svg>
