<svg width="40" height="41" viewBox="0 0 40 41" fill="none" xmlns="http://www.w3.org/2000/svg">
<g clip-path="url(#clip0_39_20)">
<path d="M15 32.4583C7.83333 34.85 7.83333 28.1875 5 27.3333M25 35.875V29.8958C25 28.1875 25.1667 27.5041 24.1667 26.4791C28.8333 25.9666 33.3333 24.0875 33.3333 16.2291C33.3313 14.1876 32.5542 12.227 31.1667 10.7625C31.8174 8.98917 31.7575 7.02401 31 5.29581C31 5.29581 29.1667 4.78331 25.1667 7.51664C21.7787 6.61223 18.2213 6.61223 14.8333 7.51664C10.8333 4.78331 9 5.29581 9 5.29581C8.24247 7.02401 8.18256 8.98917 8.83333 10.7625C7.44575 12.227 6.6687 14.1876 6.66667 16.2291C6.66667 24.0875 11.1667 25.9666 15.8333 26.4791C14.8333 27.5041 14.8333 28.5291 15 29.8958V35.875" stroke="black" stroke-width="3" stroke-linecap="round" stroke-linejoin="round"/>
</g>
<defs>
<clipPath id="clip0_39_20">
<rect width="40" height="41" fill="white"/>
</clipPath>
</defs>
</svg>
