<svg width="40" height="41" viewBox="0 0 40 41" fill="none" xmlns="http://www.w3.org/2000/svg">
<mask id="path-1-inside-1_40_63" fill="white">
<path d="M18.75 0V3.76531H15.4167V5.43878H18.75V9.20408H20.4167V5.43878H23.75V3.76531H20.4167V0H18.75ZM8.33333 4.18367V9.20408H3.33333V10.8776H8.33333V15.898H10V10.8776H15V9.20408H10V4.18367H8.33333ZM29.1667 4.18367V9.20408H24.1667V10.8776H29.1667V15.898H30.8333V10.8776H35.8333V9.20408H30.8333V4.18367H29.1667ZM18.3333 13.3878V19.2449H12.5V21.7551H18.3333V27.6122H20.8333V21.7551H26.6667V19.2449H20.8333V13.3878H18.3333ZM3.33333 15.898V19.6633H0V21.3367H3.33333V25.102H5V21.3367H8.33333V19.6633H5V15.898H3.33333ZM35 15.898V19.6633H31.6667V21.3367H35V25.102H36.6667V21.3367H40V19.6633H36.6667V15.898H35ZM8.33333 24.2653V29.2857H3.33333V30.9592H8.33333V35.9796H10V30.9592H15V29.2857H10V24.2653H8.33333ZM29.1667 24.2653V29.2857H24.1667V30.9592H29.1667V35.9796H30.8333V30.9592H35.8333V29.2857H30.8333V24.2653H29.1667ZM18.75 31.7959V35.5612H15.4167V37.2347H18.75V41H20.4167V37.2347H23.75V35.5612H20.4167V31.7959H18.75Z"/>
</mask>
<path d="M18.75 0V3.76531H15.4167V5.43878H18.75V9.20408H20.4167V5.43878H23.75V3.76531H20.4167V0H18.75ZM8.33333 4.18367V9.20408H3.33333V10.8776H8.33333V15.898H10V10.8776H15V9.20408H10V4.18367H8.33333ZM29.1667 4.18367V9.20408H24.1667V10.8776H29.1667V15.898H30.8333V10.8776H35.8333V9.20408H30.8333V4.18367H29.1667ZM18.3333 13.3878V19.2449H12.5V21.7551H18.3333V27.6122H20.8333V21.7551H26.6667V19.2449H20.8333V13.3878H18.3333ZM3.33333 15.898V19.6633H0V21.3367H3.33333V25.102H5V21.3367H8.33333V19.6633H5V15.898H3.33333ZM35 15.898V19.6633H31.6667V21.3367H35V25.102H36.6667V21.3367H40V19.6633H36.6667V15.898H35ZM8.33333 24.2653V29.2857H3.33333V30.9592H8.33333V35.9796H10V30.9592H15V29.2857H10V24.2653H8.33333ZM29.1667 24.2653V29.2857H24.1667V30.9592H29.1667V35.9796H30.8333V30.9592H35.8333V29.2857H30.8333V24.2653H29.1667ZM18.75 31.7959V35.5612H15.4167V37.2347H18.75V41H20.4167V37.2347H23.75V35.5612H20.4167V31.7959H18.75Z" fill="black" stroke="black" stroke-width="2" mask="url(#path-1-inside-1_40_63)"/>
</svg>
